<svg id="Layer_1" data-name="Layer 1" xmlns="http://www.w3.org/2000/svg" viewBox="0 0 500 500"><defs><style>.cls-1{fill:#9e5da4;}.cls-2{fill:#5fa965;}</style></defs><path class="cls-1" d="M64.329,238.9c28.17,0,32.137-15.473,32.137-29.359,0-11.108-1.589-22.217-3.175-33.326s-3.173-21.82-3.173-32.929c0-36.5,23.8-51.973,57.526-51.973h8.332v21.821h-7.141c-23.407,0-31.342,12.7-31.342,34.12a173.613,173.613,0,0,0,2.776,28.168,185.033,185.033,0,0,1,2.778,30.152c.4,25.391-10.713,38.087-28.565,42.848v.794c17.852,4.363,28.962,17.852,28.565,43.244a181,181,0,0,1-2.778,30.152c-1.587,9.918-2.776,19.043-2.776,28.565,0,22.217,9.124,34.516,31.342,34.516h7.141v21.82h-8.332c-32.929,0-57.526-14.282-57.526-54.352,0-10.712,1.586-21.821,3.173-32.533s3.175-21.424,3.175-32.136c0-12.3-3.967-29.359-32.137-29.359Z"/><path class="cls-1" d="M435.671,259.128c-28.168,0-32.135,17.061-32.135,29.359,0,10.712,1.587,21.424,3.173,32.136s3.173,21.821,3.173,32.533c0,40.07-24.994,54.352-57.526,54.352h-8.332v-21.82h6.746c22.216-.4,31.737-12.3,31.737-34.516,0-9.522-1.586-18.647-2.776-28.565-1.586-9.522-3.173-19.441-3.173-30.152,0-25.392,11.108-38.881,28.565-43.244v-.794c-17.457-4.761-28.565-17.457-28.565-42.848,0-10.712,1.587-20.233,3.173-30.152,1.19-9.522,2.776-19.043,2.776-28.168,0-21.424-8.33-33.723-31.34-34.12h-7.143V91.308h7.935c33.723,0,57.923,15.473,57.923,51.973,0,11.109-1.586,21.821-3.173,32.929s-3.173,22.218-3.173,33.326c0,13.886,3.967,29.359,32.135,29.359Z"/><path class="cls-2" d="M215.551,127.172c-21.6,28.993-37.278,67.454-37.278,121,0,52.661,16.273,90.53,37.278,120.116H195.137C176.5,343.735,156.38,305.866,156.38,248.175c.3-58.282,20.118-96.151,38.757-121Z"/><path class="cls-2" d="M290.1,368.291c21.006-29.29,37.278-67.75,37.278-121,0-52.957-15.976-90.826-37.278-120.115h20.118c18.934,24.26,38.757,62.129,38.757,120.412,0,57.986-19.823,95.559-38.757,120.707Z"/><path class="cls-1" d="M237.233,318.18c0-9.406,6.533-16.2,15.417-16.2,9.408,0,15.418,6.8,15.418,16.2,0,9.146-6.01,16.2-15.418,16.2C243.505,334.382,237.233,327.326,237.233,318.18Zm6.533-37.368-3.658-125.429h25.086l-3.659,125.429Z"/></svg>